<?xml version="1.0" encoding="UTF-8"?>
<!DOCTYPE svg PUBLIC "-//W3C//DTD SVG 1.1//EN" "http://www.w3.org/Graphics/SVG/1.1/DTD/svg11.dtd">
<svg xmlns="http://www.w3.org/2000/svg" version="1.1" width="1969px" height="1496px" style="shape-rendering:geometricPrecision; text-rendering:geometricPrecision; image-rendering:optimizeQuality; fill-rule:evenodd; clip-rule:evenodd" xmlns:xlink="http://www.w3.org/1999/xlink">
<g><path style="opacity:0.551" fill="#000000" d="M 98.5,-0.5 C 99.1667,-0.5 99.8333,-0.5 100.5,-0.5C 104.04,37.9274 97.5397,74.594 81,109.5C 59.4093,151.902 32.2427,190.235 -0.5,224.5C -0.5,223.167 -0.5,221.833 -0.5,220.5C 30.8559,187.288 57.0226,150.288 78,109.5C 94.6403,74.6577 101.474,37.991 98.5,-0.5 Z"/></g>
<g><path style="opacity:0.534" fill="#000000" d="M 111.5,-0.5 C 112.833,-0.5 114.167,-0.5 115.5,-0.5C 170.004,67.8826 176.837,140.883 136,218.5C 119.022,246.485 99.3555,272.485 77,296.5C 51.1508,323.575 25.3174,350.575 -0.5,377.5C -0.5,376.167 -0.5,374.833 -0.5,373.5C 25.1332,347.032 50.6332,320.365 76,293.5C 98.0242,269.816 117.358,244.149 134,216.5C 174.789,139.146 167.289,66.8131 111.5,-0.5 Z"/></g>
<g><path style="opacity:0.538" fill="#000000" d="M 1910.5,-0.5 C 1911.17,-0.5 1911.83,-0.5 1912.5,-0.5C 1916.04,37.9274 1909.54,74.594 1893,109.5C 1875.64,144.253 1854.3,176.253 1829,205.5C 1797.4,240.437 1765.07,274.771 1732,308.5C 1712.07,329.71 1694.07,352.376 1678,376.5C 1631.15,452.09 1633.82,525.757 1686,597.5C 1691.95,605.788 1698.29,613.788 1705,621.5C 1699.98,586.061 1703.32,551.394 1715,517.5C 1726.25,487.963 1741.25,460.63 1760,435.5C 1777.87,411.956 1796.87,389.289 1817,367.5C 1840.3,342.53 1863.97,317.863 1888,293.5C 1908.3,271.879 1926.3,248.546 1942,223.5C 1954.21,203.097 1963.04,181.431 1968.5,158.5C 1968.5,162.167 1968.5,165.833 1968.5,169.5C 1958.02,203.473 1941.52,234.14 1919,261.5C 1887.14,298.703 1853.8,334.703 1819,369.5C 1808,381.833 1797,394.167 1786,406.5C 1767.28,429.61 1750.28,453.943 1735,479.5C 1716.1,512.693 1706.27,548.359 1705.5,586.5C 1705.86,600.227 1706.69,613.894 1708,627.5C 1683.59,602.383 1664.92,573.383 1652,540.5C 1637.47,494.96 1639.8,450.293 1659,406.5C 1671.85,379.678 1687.85,355.011 1707,332.5C 1745,291.833 1783,251.167 1821,210.5C 1848.2,179.782 1871.2,146.116 1890,109.5C 1906.64,74.6577 1913.47,37.991 1910.5,-0.5 Z"/></g>
<g><path style="opacity:0.533" fill="#000000" d="M 1923.5,-0.5 C 1924.83,-0.5 1926.17,-0.5 1927.5,-0.5C 1945.46,22.4736 1959.12,47.8069 1968.5,75.5C 1968.5,79.1667 1968.5,82.8333 1968.5,86.5C 1960.09,54.0175 1945.09,25.0175 1923.5,-0.5 Z"/></g>
<g><path style="opacity:0.539" fill="#000000" d="M -0.5,750.5 C -0.5,749.167 -0.5,747.833 -0.5,746.5C 2.80173,749.974 5.96839,753.641 9,757.5C 1.76077,706.028 11.0941,657.694 37,612.5C 52.3648,586.432 69.6981,561.766 89,538.5C 123.073,500.404 158.073,463.07 194,426.5C 215.362,403.477 234.029,378.477 250,351.5C 286.41,284.12 283.744,218.453 242,154.5C 233.242,142.653 224.242,130.986 215,119.5C 220.865,158.307 216.532,195.974 202,232.5C 184.603,271.654 161.936,307.32 134,339.5C 98.6997,377.802 63.033,415.802 27,453.5C 17.8149,464.571 8.64824,475.571 -0.5,486.5C -0.5,484.833 -0.5,483.167 -0.5,481.5C 29.9972,446.16 61.8305,411.827 95,378.5C 119.547,352.964 142.214,325.964 163,297.5C 177.646,276.55 189.979,254.217 200,230.5C 214.027,194.949 218.194,158.282 212.5,120.5C 212.833,118.5 213.167,116.5 213.5,114.5C 292.433,198.804 298.933,288.47 233,383.5C 221.088,399.416 208.421,414.749 195,429.5C 159.234,465.595 124.567,502.595 91,540.5C 71.6981,563.766 54.3648,588.432 39,614.5C 20.0994,648.203 9.93276,684.37 8.5,723C 9.14939,735.24 10.4827,747.406 12.5,759.5C 12.1667,760.5 11.8333,761.5 11.5,762.5C 7.17273,758.839 3.17273,754.839 -0.5,750.5 Z"/></g>
<g><path style="opacity:0.54" fill="#000000" d="M 1968.5,306.5 C 1968.5,308.167 1968.5,309.833 1968.5,311.5C 1953.97,330.504 1938.47,348.838 1922,366.5C 1894.33,395.5 1866.67,424.5 1839,453.5C 1819.35,475.141 1802.02,498.475 1787,523.5C 1750.19,589.611 1751.85,654.611 1792,718.5C 1800.94,732.035 1810.6,745.035 1821,757.5C 1813.76,706.028 1823.09,657.694 1849,612.5C 1863.19,588.788 1878.85,566.122 1896,544.5C 1919.3,517.701 1943.47,491.701 1968.5,466.5C 1968.5,467.833 1968.5,469.167 1968.5,470.5C 1942.09,496.736 1916.93,524.07 1893,552.5C 1873.5,577.473 1856.5,604.14 1842,632.5C 1822.72,674.044 1816.56,717.377 1823.5,762.5C 1799.27,737.757 1780.77,709.09 1768,676.5C 1751.05,622.398 1756.72,570.731 1785,521.5C 1798.07,499.434 1813.07,478.767 1830,459.5C 1863.67,423.833 1897.33,388.167 1931,352.5C 1943.76,337.28 1956.26,321.947 1968.5,306.5 Z"/></g>
<g><path style="opacity:0.543" fill="#000000" d="M -0.5,1103.5 C -0.5,1102.17 -0.5,1100.83 -0.5,1099.5C 45.3656,1048.46 92.1989,998.127 140,948.5C 163.422,923.081 183.756,895.415 201,865.5C 244.544,786.722 242.877,709.055 196,632.5C 184.046,615.385 171.546,598.719 158.5,582.5C 166.68,636.73 158.847,688.73 135,738.5C 120.002,769.188 102.002,797.855 81,824.5C 55.4502,856.22 28.2835,886.553 -0.5,915.5C -0.5,914.167 -0.5,912.833 -0.5,911.5C 40.3214,871.864 76.4881,828.53 108,781.5C 133.204,743.745 149.538,702.412 157,657.5C 158.117,647.19 158.951,636.857 159.5,626.5C 158.438,610.124 157.272,593.791 156,577.5C 159.297,579.795 162.297,582.462 165,585.5C 173.615,597.783 182.615,609.783 192,621.5C 245.239,701.153 248.905,783.153 203,867.5C 185.262,897.636 164.595,925.636 141,951.5C 92.8657,1001.46 45.699,1052.13 -0.5,1103.5 Z"/></g>
<g><path style="opacity:0.363" fill="#000000" d="M 1968.5,577.5 C 1968.5,581.167 1968.5,584.833 1968.5,588.5C 1967.17,584.833 1967.17,581.167 1968.5,577.5 Z"/></g>
<g><path style="opacity:0.866" fill="#221f1f" d="M 692.5,621.5 C 693.496,621.414 694.329,621.748 695,622.5C 704.327,637.868 701.827,651.035 687.5,662C 679.078,667.457 671.578,673.957 665,681.5C 660.565,687.041 658.398,693.374 658.5,700.5C 648.409,686.894 649.409,674.06 661.5,662C 670.586,655.585 679.086,648.418 687,640.5C 691.361,634.914 693.195,628.581 692.5,621.5 Z"/></g>
<g><path style="opacity:0.852" fill="#221f1f" d="M 844.5,621.5 C 845.496,621.414 846.329,621.748 847,622.5C 856.327,637.909 853.827,651.076 839.5,662C 833,667.167 826.5,672.333 820,677.5C 814.076,684.016 810.909,691.683 810.5,700.5C 800.859,688.2 801.193,676.2 811.5,664.5C 811.546,657.281 811.38,649.947 811,642.5C 811.188,638.768 809.688,635.934 806.5,634C 803.171,632.959 800.171,631.459 797.5,629.5C 813.064,628.177 828.564,628.177 844,629.5C 844.497,626.854 844.664,624.187 844.5,621.5 Z M 842.5,632.5 C 841.193,637.767 838.36,642.1 834,645.5C 833.331,638.831 836.164,634.497 842.5,632.5 Z"/></g>
<g><path style="opacity:0.846" fill="#221f1f" d="M 1231.5,621.5 C 1238.93,628.567 1241.1,637.234 1238,647.5C 1235.65,652.858 1232.15,657.358 1227.5,661C 1219.54,666.569 1212.04,672.736 1205,679.5C 1203,682.833 1201,686.167 1199,689.5C 1198.5,693.152 1198.33,696.818 1198.5,700.5C 1197.32,700.719 1196.32,700.386 1195.5,699.5C 1186.82,686.795 1187.82,674.962 1198.5,664C 1197.68,655.912 1197.18,647.745 1197,639.5C 1194.79,633.967 1190.62,631.3 1184.5,631.5C 1184.5,630.5 1184.5,629.5 1184.5,628.5C 1199.74,628.176 1214.91,628.509 1230,629.5C 1231.37,627.063 1231.87,624.397 1231.5,621.5 Z M 1227.5,632.5 C 1228.38,632.369 1229.04,632.702 1229.5,633.5C 1227.4,638.027 1224.57,642.027 1221,645.5C 1220.05,639.472 1222.22,635.138 1227.5,632.5 Z"/></g>
<g><path style="opacity:0.886" fill="#221f1f" d="M 495.5,629.5 C 511.988,629.016 528.322,629.516 544.5,631C 541.639,632.246 538.639,633.246 535.5,634C 534.034,635.552 533.034,637.386 532.5,639.5C 545.791,680.069 559.625,720.402 574,760.5C 582.623,735.68 590.79,711.013 598.5,686.5C 593.628,671.05 588.461,655.717 583,640.5C 578.811,635.498 573.644,632.165 567.5,630.5C 584.167,629.167 600.833,629.167 617.5,630.5C 613.89,631.943 610.39,633.61 607,635.5C 606.333,637.833 606.333,640.167 607,642.5C 619.976,684.119 633.809,725.452 648.5,766.5C 645.965,776.439 642.631,786.106 638.5,795.5C 637.5,796.833 636.5,796.833 635.5,795.5C 623.756,761.101 611.923,726.768 600,692.5C 588.572,727.053 577.072,761.553 565.5,796C 564.5,796.667 563.5,796.667 562.5,796C 545.236,744.123 527.736,692.289 510,640.5C 506.569,635.366 501.736,632.7 495.5,632.5C 495.5,631.5 495.5,630.5 495.5,629.5 Z"/></g>
<g><path style="opacity:0.848" fill="#221f1f" d="M 1012.5,629.5 C 1019.84,629.334 1027.17,629.5 1034.5,630C 1042.67,631.753 1050.67,634.086 1058.5,637C 1063.54,637.663 1068.54,637.496 1073.5,636.5C 1074.01,645.88 1075.01,655.213 1076.5,664.5C 1076.17,665.5 1075.83,666.5 1075.5,667.5C 1072.93,657.851 1067.93,649.684 1060.5,643C 1022.85,622.863 995.018,632.029 977,670.5C 963.741,704.66 966.075,737.66 984,769.5C 998.658,792.076 1018.82,799.242 1044.5,791C 1047.89,788.715 1049.56,785.548 1049.5,781.5C 1050.5,781.5 1051.5,781.5 1052.5,781.5C 1051.03,776.324 1051.53,771.324 1054,766.5C 1062.33,758.833 1070.67,751.167 1079,743.5C 1080.58,739.286 1081.75,734.953 1082.5,730.5C 1091.15,741.157 1090.15,750.99 1079.5,760C 1073.71,764.122 1068.21,768.622 1063,773.5C 1059.45,777.646 1058.28,782.312 1059.5,787.5C 1048.59,794.082 1036.75,797.082 1024,796.5C 983.64,794.809 957.974,774.476 947,735.5C 939.793,703.662 946.96,675.662 968.5,651.5C 981.1,639.866 995.767,632.533 1012.5,629.5 Z"/></g>
<g><path style="opacity:0.863" fill="#221f1f" d="M 1338.5,629.5 C 1381.17,629.5 1423.83,629.5 1466.5,629.5C 1467.73,638.615 1469.56,647.615 1472,656.5C 1472.67,659.833 1472.67,663.167 1472,666.5C 1466.98,648.147 1455.15,636.98 1436.5,633C 1428.84,632.5 1421.17,632.334 1413.5,632.5C 1413.83,664.073 1413.5,695.573 1412.5,727C 1417.92,733.283 1418.75,740.117 1415,747.5C 1407.32,754.685 1399.48,761.685 1391.5,768.5C 1388.83,773.168 1387.17,778.168 1386.5,783.5C 1377.06,771.006 1379.06,760.506 1392.5,752C 1391.5,712.239 1391.17,672.406 1391.5,632.5C 1362.53,628.141 1342.86,639.474 1332.5,666.5C 1332.17,665.5 1331.83,664.5 1331.5,663.5C 1334.16,652.216 1336.49,640.882 1338.5,629.5 Z"/></g>
<g><path style="opacity:0.835" fill="#221f1f" d="M 683.5,708.5 C 683.295,711.988 682.461,715.321 681,718.5C 678.665,721.665 676.165,724.665 673.5,727.5C 664.879,731.621 658.379,737.954 654,746.5C 653.248,749.718 652.748,752.718 652.5,755.5C 645.131,747.313 644.631,738.646 651,729.5C 656.667,724.833 662.333,720.167 668,715.5C 665.503,709.708 663.669,703.542 662.5,697C 662.855,689.92 665.522,683.92 670.5,679C 680.255,671.916 689.422,664.083 698,655.5C 702.883,649.739 704.716,643.072 703.5,635.5C 704.5,635.5 705.5,635.5 706.5,635.5C 708.297,639.771 710.13,644.104 712,648.5C 713.462,655.431 712.128,661.764 708,667.5C 699.754,675.75 690.921,683.25 681.5,690C 679.595,691.815 677.928,693.815 676.5,696C 679.781,699.739 682.115,703.905 683.5,708.5 Z M 674.5,698.5 C 676.199,703.18 675.366,707.513 672,711.5C 671.414,706.853 672.247,702.52 674.5,698.5 Z"/></g>
<g><path style="opacity:0.84" fill="#221f1f" d="M 825.5,727.5 C 813.343,732.996 806.009,742.33 803.5,755.5C 797.083,746.928 796.916,738.261 803,729.5C 808.667,724.833 814.333,720.167 820,715.5C 817.671,709.454 815.838,703.12 814.5,696.5C 815.407,689.854 818.073,684.021 822.5,679C 832.28,671.887 841.447,664.053 850,655.5C 854.936,649.635 856.77,642.968 855.5,635.5C 866.005,645.187 867.171,656.187 859,668.5C 851.086,676.418 842.586,683.585 833.5,690C 830.972,692.598 829.139,695.431 828,698.5C 828.718,697.549 829.551,697.383 830.5,698C 837.06,709.236 835.394,719.069 825.5,727.5 Z"/></g>
<g><path style="opacity:0.844" fill="#221f1f" d="M 1242.5,635.5 C 1253.24,645.923 1254.08,657.256 1245,669.5C 1237.3,676.928 1229.13,683.762 1220.5,690C 1218.13,692.039 1216.13,694.372 1214.5,697C 1221.17,702.375 1223.01,709.209 1220,717.5C 1216.87,721.633 1213.37,725.466 1209.5,729C 1198.64,734.678 1192.31,743.512 1190.5,755.5C 1184.07,746.929 1183.9,738.262 1190,729.5C 1195.71,724.284 1201.54,719.284 1207.5,714.5C 1198.67,701.417 1199.67,689.25 1210.5,678C 1219.92,671.25 1228.75,663.75 1237,655.5C 1241.32,649.552 1243.15,642.885 1242.5,635.5 Z M 1209.5,710.5 C 1212,710.511 1212.17,711.178 1210,712.5C 1209.54,711.906 1209.37,711.239 1209.5,710.5 Z"/></g>
<g><path style="opacity:0.537" fill="#000000" d="M 1968.5,663.5 C 1968.5,668.167 1968.5,672.833 1968.5,677.5C 1959.93,712.321 1946.09,744.988 1927,775.5C 1903.68,811.165 1877.68,844.832 1849,876.5C 1809.63,917.531 1770.63,958.865 1732,1000.5C 1706.69,1028.84 1685.69,1060.17 1669,1094.5C 1635.2,1172.09 1642.2,1245.76 1690,1315.5C 1699.9,1330.07 1710.57,1344.07 1722,1357.5C 1714.76,1312.41 1719.09,1268.41 1735,1225.5C 1748.53,1191.36 1766.19,1159.69 1788,1130.5C 1808.91,1102.72 1831.24,1076.06 1855,1050.5C 1893.43,1010.57 1931.27,970.239 1968.5,929.5C 1968.5,930.833 1968.5,932.167 1968.5,933.5C 1931.93,973.572 1894.77,1013.24 1857,1052.5C 1833.24,1078.06 1810.91,1104.72 1790,1132.5C 1765.54,1165.09 1746.54,1200.75 1733,1239.5C 1720.64,1279.04 1718.14,1319.2 1725.5,1360C 1725.17,1360.83 1724.83,1361.67 1724.5,1362.5C 1626.22,1257.07 1619.72,1146.07 1705,1029.5C 1713.67,1018.83 1722.33,1008.17 1731,997.5C 1769.63,955.865 1808.63,914.531 1848,873.5C 1876.57,842.331 1902.24,808.998 1925,773.5C 1946.49,739.515 1960.99,702.849 1968.5,663.5 Z"/></g>
<g><path style="opacity:0.804" fill="#221f1f" d="M 683.5,708.5 C 684.251,707.427 685.251,707.26 686.5,708C 694.042,718.871 692.709,728.538 682.5,737C 673.642,741.858 666.808,748.692 662,757.5C 661.818,760.226 661.318,762.893 660.5,765.5C 653.077,757.671 652.577,749.338 659,740.5C 664.028,736.301 668.861,731.968 673.5,727.5C 681.389,723.384 684.722,717.05 683.5,708.5 Z"/></g>
<g><path style="opacity:0.875" fill="#221f1f" d="M 825.5,727.5 C 833.039,723.108 837.039,716.442 837.5,707.5C 846.076,718.425 844.909,728.425 834,737.5C 833.333,753.167 833.333,768.833 834,784.5C 835.936,791.266 840.436,794.932 847.5,795.5C 830.833,796.833 814.167,796.833 797.5,795.5C 808.27,793.723 812.936,787.39 811.5,776.5C 811.449,773.777 811.116,771.11 810.5,768.5C 811.242,766.65 812.242,765.984 813.5,766.5C 804.925,757.968 804.425,748.968 812,739.5C 816.694,735.635 821.194,731.635 825.5,727.5 Z"/></g>
<g><path style="opacity:0.873" fill="#221f1f" d="M 1223.5,707.5 C 1229.55,713.335 1231.05,720.335 1228,728.5C 1226.04,731.463 1223.71,734.129 1221,736.5C 1220.33,752.833 1220.33,769.167 1221,785.5C 1223.36,791.694 1227.86,795.027 1234.5,795.5C 1217.83,796.833 1201.17,796.833 1184.5,795.5C 1187.53,794.433 1190.53,793.266 1193.5,792C 1195.49,790.681 1196.65,788.848 1197,786.5C 1196.89,779.391 1197.72,772.557 1199.5,766C 1192.23,757.887 1191.73,749.387 1198,740.5C 1204.48,734.596 1211.15,728.929 1218,723.5C 1221.84,718.833 1223.67,713.5 1223.5,707.5 Z"/></g>
<g><path style="opacity:0.797" fill="#221f1f" d="M 1073.5,719.5 C 1083.28,730.372 1082.28,740.539 1070.5,750C 1065.04,753.787 1059.88,757.954 1055,762.5C 1051.64,767.274 1050.14,772.608 1050.5,778.5C 1049.5,778.5 1048.5,778.5 1047.5,778.5C 1045.73,774.133 1044.4,769.633 1043.5,765C 1043.6,759.229 1045.93,754.562 1050.5,751C 1049.26,751.077 1048.26,750.911 1047.5,750.5C 1049.2,744.807 1047.87,739.973 1043.5,736C 1040.17,734.959 1037.17,733.459 1034.5,731.5C 1040.5,731.167 1046.5,730.833 1052.5,730.5C 1058.91,730.523 1065.08,731.19 1071,732.5C 1072.9,728.368 1073.73,724.034 1073.5,719.5 Z"/></g>
<g><path style="opacity:0.831" fill="#221f1f" d="M 1419.5,735.5 C 1425.23,741.531 1426.73,748.531 1424,756.5C 1421.04,760.466 1417.7,764.133 1414,767.5C 1413.33,773.167 1413.33,778.833 1414,784.5C 1416.01,791.104 1420.51,794.771 1427.5,795.5C 1410.7,796.248 1394.03,796.415 1377.5,796C 1382.54,794.984 1386.7,792.484 1390,788.5C 1389.46,783.91 1389.46,779.243 1390,774.5C 1390.67,773.167 1391.33,771.833 1392,770.5C 1398.71,764.126 1405.71,758.126 1413,752.5C 1417.41,747.674 1419.58,742.008 1419.5,735.5 Z"/></g>
<g><path style="opacity:0.539" fill="#000000" d="M 49.5,1495.5 C 48.8333,1495.5 48.1667,1495.5 47.5,1495.5C 44.8148,1451.09 52.9815,1408.76 72,1368.5C 93.3749,1325.72 119.708,1286.39 151,1250.5C 190.934,1206.56 231.601,1163.23 273,1120.5C 300.861,1090.64 324.861,1057.98 345,1022.5C 386.799,939.644 381.133,860.311 328,784.5C 318.333,771.833 308.667,759.167 299,746.5C 306.208,795.835 300.208,843.501 281,889.5C 267.376,920.101 250.71,948.768 231,975.5C 219.38,990.789 207.38,1005.79 195,1020.5C 157.033,1061.47 118.699,1102.14 80,1142.5C 58.8167,1165.68 39.1501,1190.01 21,1215.5C 13.3017,1227.57 6.13503,1239.9 -0.5,1252.5C -0.5,1250.5 -0.5,1248.5 -0.5,1246.5C 21.5121,1207.63 48.0121,1171.97 79,1139.5C 117.699,1099.14 156.033,1058.47 194,1017.5C 216.531,991.433 236.864,963.766 255,934.5C 277.863,897.578 292.197,857.578 298,814.5C 298.832,806.521 299.332,798.521 299.5,790.5C 298.93,774.428 297.597,758.428 295.5,742.5C 297.963,742.781 300.13,743.781 302,745.5C 314.386,761.552 326.386,777.886 338,794.5C 386.958,874.112 387.958,954.446 341,1035.5C 321.687,1066.49 299.687,1095.49 275,1122.5C 233.267,1165.56 192.267,1209.23 152,1253.5C 121.287,1289.23 95.2865,1328.23 74,1370.5C 55.5081,1410.13 47.3414,1451.79 49.5,1495.5 Z"/></g>
<g><path style="opacity:0.518" fill="#221f1f" d="M 674.5,892.5 C 675.5,892.5 676.5,892.5 677.5,892.5C 677.5,895.5 677.5,898.5 677.5,901.5C 680.167,901.5 682.833,901.5 685.5,901.5C 685.5,898.5 685.5,895.5 685.5,892.5C 686.5,892.5 687.5,892.5 688.5,892.5C 688.5,898.833 688.5,905.167 688.5,911.5C 687.5,911.5 686.5,911.5 685.5,911.5C 685.5,909.167 685.5,906.833 685.5,904.5C 682.881,904.768 680.381,904.435 678,903.5C 677.503,906.146 677.336,908.813 677.5,911.5C 676.5,911.5 675.5,911.5 674.5,911.5C 674.5,905.167 674.5,898.833 674.5,892.5 Z"/></g>
<g><path style="opacity:0.526" fill="#221f1f" d="M 714.5,892.5 C 715.675,892.281 716.675,892.614 717.5,893.5C 720.11,899.053 722.443,904.719 724.5,910.5C 723.5,911.833 722.5,911.833 721.5,910.5C 720.627,908.587 719.627,906.753 718.5,905C 716.527,904.505 714.527,904.338 712.5,904.5C 712.313,906.564 711.813,908.564 711,910.5C 709.989,911.337 708.822,911.67 707.5,911.5C 709.551,905.064 711.885,898.731 714.5,892.5 Z M 715.5,897.5 C 716.249,898.531 716.915,899.698 717.5,901C 716.365,901.749 715.365,901.583 714.5,900.5C 715.127,899.583 715.461,898.583 715.5,897.5 Z"/></g>
<g><path style="opacity:0.485" fill="#221f1f" d="M 742.5,892.5 C 745.85,892.335 749.183,892.502 752.5,893C 755.57,895.569 756.237,898.736 754.5,902.5C 751.78,904.111 748.78,904.944 745.5,905C 746.423,907.041 746.756,909.208 746.5,911.5C 745.167,911.5 743.833,911.5 742.5,911.5C 742.5,905.167 742.5,898.833 742.5,892.5 Z M 745.5,895.5 C 747.527,895.338 749.527,895.505 751.5,896C 752.554,897.388 752.72,898.888 752,900.5C 749.936,901.591 747.769,901.758 745.5,901C 746.536,899.224 746.536,897.391 745.5,895.5 Z"/></g>
<g><path style="opacity:0.479" fill="#221f1f" d="M 775.5,892.5 C 778.85,892.335 782.183,892.502 785.5,893C 790.249,895.97 790.582,899.303 786.5,903C 783.956,904.092 781.289,904.759 778.5,905C 779.423,907.041 779.756,909.208 779.5,911.5C 778.167,911.5 776.833,911.5 775.5,911.5C 775.5,905.167 775.5,898.833 775.5,892.5 Z M 778.5,895.5 C 780.527,895.338 782.527,895.505 784.5,896C 785.554,897.388 785.72,898.888 785,900.5C 782.936,901.591 780.769,901.758 778.5,901C 779.536,899.224 779.536,897.391 778.5,895.5 Z"/></g>
<g><path style="opacity:0.489" fill="#221f1f" d="M 806.5,892.5 C 807.822,892.33 808.989,892.663 810,893.5C 811,895.5 812,897.5 813,899.5C 814.377,897.246 815.877,895.08 817.5,893C 818.635,892.251 819.635,892.417 820.5,893.5C 818.667,896.5 816.833,899.5 815,902.5C 814.502,905.482 814.335,908.482 814.5,911.5C 813.5,911.5 812.5,911.5 811.5,911.5C 811.665,908.15 811.498,904.817 811,901.5C 809.192,898.562 807.692,895.562 806.5,892.5 Z"/></g>
<g><path style="opacity:0.477" fill="#221f1f" d="M 860.5,892.5 C 861.822,892.33 862.989,892.663 864,893.5C 864.497,896.146 864.664,898.813 864.5,901.5C 867.167,901.5 869.833,901.5 872.5,901.5C 872.5,898.5 872.5,895.5 872.5,892.5C 873.5,892.5 874.5,892.5 875.5,892.5C 875.5,898.833 875.5,905.167 875.5,911.5C 874.5,911.5 873.5,911.5 872.5,911.5C 872.664,908.813 872.497,906.146 872,903.5C 869.619,904.435 867.119,904.768 864.5,904.5C 864.5,906.833 864.5,909.167 864.5,911.5C 863.167,911.5 861.833,911.5 860.5,911.5C 860.5,905.167 860.5,898.833 860.5,892.5 Z"/></g>
<g><path style="opacity:0.505" fill="#221f1f" d="M 900.5,892.5 C 901.978,892.238 903.311,892.571 904.5,893.5C 906.349,899.549 908.682,905.383 911.5,911C 910.056,911.781 908.723,911.614 907.5,910.5C 906.738,905.197 903.905,903.531 899,905.5C 898.187,907.436 897.687,909.436 897.5,911.5C 896.127,911.657 894.793,911.49 893.5,911C 895.737,904.787 898.07,898.621 900.5,892.5 Z M 901.5,898.5 C 904.3,900.476 903.967,901.309 900.5,901C 901.252,900.329 901.586,899.496 901.5,898.5 Z"/></g>
<g><path style="opacity:0.526" fill="#221f1f" d="M 929.5,892.5 C 930.5,892.5 931.5,892.5 932.5,892.5C 932.5,898.833 932.5,905.167 932.5,911.5C 931.5,911.5 930.5,911.5 929.5,911.5C 929.5,905.167 929.5,898.833 929.5,892.5 Z"/></g>
<g><path style="opacity:0.527" fill="#221f1f" d="M 953.5,892.5 C 957.584,892.043 961.417,892.71 965,894.5C 966.949,898.493 966.116,901.826 962.5,904.5C 964.02,906.662 965.02,908.995 965.5,911.5C 964.448,911.649 963.448,911.483 962.5,911C 958.696,902.534 956.696,902.701 956.5,911.5C 955.5,911.5 954.5,911.5 953.5,911.5C 953.5,905.167 953.5,898.833 953.5,892.5 Z M 956.5,895.5 C 959.38,895.033 961.713,895.866 963.5,898C 962.219,901.044 959.885,902.21 956.5,901.5C 956.5,899.5 956.5,897.5 956.5,895.5 Z"/></g>
<g><path style="opacity:0.449" fill="#221f1f" d="M 1009.5,892.5 C 1010.5,892.5 1011.5,892.5 1012.5,892.5C 1012.5,895.5 1012.5,898.5 1012.5,901.5C 1015.17,901.5 1017.83,901.5 1020.5,901.5C 1020.5,898.5 1020.5,895.5 1020.5,892.5C 1021.82,892.33 1022.99,892.663 1024,893.5C 1024.5,899.491 1024.67,905.491 1024.5,911.5C 1023.17,911.5 1021.83,911.5 1020.5,911.5C 1020.5,909.167 1020.5,906.833 1020.5,904.5C 1017.83,904.5 1015.17,904.5 1012.5,904.5C 1012.5,906.833 1012.5,909.167 1012.5,911.5C 1011.5,911.5 1010.5,911.5 1009.5,911.5C 1009.5,905.167 1009.5,898.833 1009.5,892.5 Z"/></g>
<g><path style="opacity:0.522" fill="#221f1f" d="M 1049.5,892.5 C 1050.68,892.281 1051.68,892.614 1052.5,893.5C 1055.41,899.234 1058.07,905.068 1060.5,911C 1059.17,911.667 1057.83,911.667 1056.5,911C 1055.76,909.215 1055.09,907.382 1054.5,905.5C 1052.58,904.359 1050.58,904.192 1048.5,905C 1047.37,906.753 1046.37,908.587 1045.5,910.5C 1044.28,911.614 1042.94,911.781 1041.5,911C 1044.58,905.002 1047.25,898.835 1049.5,892.5 Z M 1050.5,898.5 C 1053.38,900.846 1053.04,901.679 1049.5,901C 1050.25,900.329 1050.59,899.496 1050.5,898.5 Z"/></g>
<g><path style="opacity:0.537" fill="#221f1f" d="M 1078.5,892.5 C 1081.85,892.335 1085.18,892.502 1088.5,893C 1093.3,900.882 1090.97,904.715 1081.5,904.5C 1081.5,906.833 1081.5,909.167 1081.5,911.5C 1080.5,911.5 1079.5,911.5 1078.5,911.5C 1078.5,905.167 1078.5,898.833 1078.5,892.5 Z M 1081.5,895.5 C 1083.53,895.338 1085.53,895.505 1087.5,896C 1088.99,898.022 1088.66,899.688 1086.5,901C 1084.87,901.494 1083.2,901.66 1081.5,901.5C 1081.5,899.5 1081.5,897.5 1081.5,895.5 Z"/></g>
<g><path style="opacity:0.455" fill="#221f1f" d="M 1111.5,892.5 C 1114.85,892.335 1118.18,892.502 1121.5,893C 1126.3,900.882 1123.97,904.715 1114.5,904.5C 1114.5,906.833 1114.5,909.167 1114.5,911.5C 1113.17,911.5 1111.83,911.5 1110.5,911.5C 1110.21,905.077 1110.54,898.744 1111.5,892.5 Z M 1114.5,895.5 C 1117.6,894.907 1119.93,895.907 1121.5,898.5C 1119.93,901.093 1117.6,902.093 1114.5,901.5C 1114.5,899.5 1114.5,897.5 1114.5,895.5 Z"/></g>
<g><path style="opacity:0.529" fill="#221f1f" d="M 1141.5,893.5 C 1142.71,892.218 1144.04,892.218 1145.5,893.5C 1146.25,895.332 1147.25,896.999 1148.5,898.5C 1149.71,896.578 1151.04,894.745 1152.5,893C 1153.45,892.517 1154.45,892.351 1155.5,892.5C 1154.47,896.217 1152.64,899.55 1150,902.5C 1149,914.5 1148,914.5 1147,902.5C 1145.3,899.328 1143.47,896.328 1141.5,893.5 Z"/></g>
<g><path style="opacity:0.549" fill="#221f1f" d="M 1196.5,892.5 C 1198.45,897.735 1199.12,903.402 1198.5,909.5C 1201.57,909.183 1204.57,909.516 1207.5,910.5C 1203.55,911.491 1199.55,911.824 1195.5,911.5C 1195.21,905.077 1195.54,898.744 1196.5,892.5 Z"/></g>
<g><path style="opacity:0.492" fill="#221f1f" d="M 1225.5,892.5 C 1226.5,892.5 1227.5,892.5 1228.5,892.5C 1228.5,898.833 1228.5,905.167 1228.5,911.5C 1227.5,911.5 1226.5,911.5 1225.5,911.5C 1225.5,905.167 1225.5,898.833 1225.5,892.5 Z"/></g>
<g><path style="opacity:0.504" fill="#221f1f" d="M 1249.5,892.5 C 1253.83,892.5 1258.17,892.5 1262.5,892.5C 1262.5,893.5 1262.5,894.5 1262.5,895.5C 1259.17,895.5 1255.83,895.5 1252.5,895.5C 1252.5,897.5 1252.5,899.5 1252.5,901.5C 1254.92,901.192 1257.26,901.526 1259.5,902.5C 1259.29,903.086 1258.96,903.586 1258.5,904C 1256.53,904.495 1254.53,904.662 1252.5,904.5C 1252.5,906.833 1252.5,909.167 1252.5,911.5C 1251.5,911.5 1250.5,911.5 1249.5,911.5C 1249.5,905.167 1249.5,898.833 1249.5,892.5 Z"/></g>
<g><path style="opacity:0.519" fill="#221f1f" d="M 1280.5,892.5 C 1284.83,892.5 1289.17,892.5 1293.5,892.5C 1293.64,894.124 1292.97,895.29 1291.5,896C 1288.9,896.769 1286.4,896.602 1284,895.5C 1283.5,897.473 1283.34,899.473 1283.5,901.5C 1285.83,901.5 1288.17,901.5 1290.5,901.5C 1290.5,902.5 1290.5,903.5 1290.5,904.5C 1288.17,904.5 1285.83,904.5 1283.5,904.5C 1283.5,906.167 1283.5,907.833 1283.5,909.5C 1286.9,909.18 1290.23,909.513 1293.5,910.5C 1289.22,911.492 1284.88,911.826 1280.5,911.5C 1280.5,905.167 1280.5,898.833 1280.5,892.5 Z"/></g>
<g><path style="opacity:0.391" fill="#221f1f" d="M 984.5,901.5 C 986.924,901.192 989.257,901.526 991.5,902.5C 991.291,903.086 990.957,903.586 990.5,904C 988.527,904.495 986.527,904.662 984.5,904.5C 984.5,903.5 984.5,902.5 984.5,901.5 Z"/></g>
<g><path style="opacity:0.538" fill="#000000" d="M 1968.5,1058.5 C 1968.5,1059.83 1968.5,1061.17 1968.5,1062.5C 1939.9,1092.94 1911.07,1123.27 1882,1153.5C 1857.16,1180.86 1835.49,1210.53 1817,1242.5C 1776.53,1320.48 1779.2,1396.82 1825,1471.5C 1830.33,1479.66 1835.83,1487.66 1841.5,1495.5C 1840.17,1495.5 1838.83,1495.5 1837.5,1495.5C 1772.49,1406.91 1768.66,1315.58 1826,1221.5C 1842.47,1197.03 1860.47,1173.69 1880,1151.5C 1909.73,1120.6 1939.23,1089.6 1968.5,1058.5 Z"/></g>
<g><path style="opacity:0.548" fill="#000000" d="M 1968.5,1245.5 C 1968.5,1246.83 1968.5,1248.17 1968.5,1249.5C 1935.58,1285.95 1908.08,1326.29 1886,1370.5C 1867.51,1410.13 1859.34,1451.79 1861.5,1495.5C 1860.83,1495.5 1860.17,1495.5 1859.5,1495.5C 1856.94,1454.56 1863.77,1415.22 1880,1377.5C 1902.82,1328.81 1932.32,1284.81 1968.5,1245.5 Z"/></g>
<g><path style="opacity:0.533" fill="#000000" d="M -0.5,1448.5 C 8.67666,1464.68 18.6767,1480.35 29.5,1495.5C 28.1667,1495.5 26.8333,1495.5 25.5,1495.5C 16.5804,1481.99 7.91374,1468.33 -0.5,1454.5C -0.5,1452.5 -0.5,1450.5 -0.5,1448.5 Z"/></g>
</svg>
